<svg width="2259" height="938" viewBox="0 0 2259 938" fill="none" xmlns="http://www.w3.org/2000/svg">
<path d="M1242.31 36.791C1249.37 37.0084 1256.42 37.2365 1263.47 37.5108C1266.15 37.6143 1268.83 37.7178 1271.6 37.8244C1321.33 39.9918 1371.18 44.2244 1420.25 52.7246C1427.24 76.4992 1433.3 100.416 1438.85 124.568C1444.73 150.138 1450.89 175.618 1457.3 201.06C1466.25 236.606 1474.96 272.204 1483.55 307.839C1485.46 315.775 1487.38 323.711 1489.3 331.646C1496.02 359.457 1502.71 387.277 1509.38 415.103C1512.3 427.297 1515.23 439.489 1518.17 451.679C1523.13 472.274 1528.09 492.867 1532.84 513.514C1534.6 521.179 1536.4 528.837 1538.19 536.494C1539 539.989 1539.8 543.486 1540.58 546.988C1545.98 571.132 1552.73 592.847 1571.41 610.144C1572.92 611.585 1574.44 613.026 1576 614.511C1578.12 616.463 1578.12 616.463 1580.28 618.455C1589.04 626.741 1593.45 631.629 1594.37 644.234C1593.77 652.782 1593.33 655.623 1587.04 661.279C1563.42 670.868 1535.34 662.37 1510.94 658.099C1501.98 656.535 1493.02 655.025 1484.05 653.514C1481.36 653.06 1481.36 653.06 1478.62 652.596C1446.65 647.224 1414.61 642.319 1382.33 639.26C1377.93 638.84 1377.93 638.84 1373.43 638.412C1367.83 637.896 1362.22 637.413 1356.61 636.969C1338.4 635.333 1318.51 632.783 1305.02 619.159C1299.54 609.479 1298.15 602.271 1300.8 591.408C1307.66 579.089 1317.97 573.035 1330.1 566.615C1341.42 543.963 1325.54 509.985 1318.83 487.729C1290.7 485.051 1262.63 482.755 1234.39 481.738C1221.14 481.241 1208.04 480.177 1194.86 478.713C1196.14 464.236 1198.71 450.958 1202.75 437.016C1203.26 435.191 1203.77 433.366 1204.29 431.487C1208.07 418.178 1208.07 418.178 1210.64 415.604C1217.31 415.404 1223.92 415.344 1230.58 415.383C1233.58 415.388 1233.58 415.388 1236.64 415.393C1243.04 415.406 1249.45 415.434 1255.86 415.463C1260.19 415.474 1264.53 415.484 1268.86 415.493C1279.51 415.518 1290.15 415.557 1300.8 415.604C1290 370.351 1278.81 325.199 1267.51 280.068C1265.55 272.206 1263.58 264.343 1261.62 256.48C1254.7 228.807 1247.78 201.135 1240.72 173.501C1238.36 164.286 1236.02 155.068 1233.67 145.849C1232.1 139.669 1230.5 133.495 1228.89 127.321C1227.95 123.61 1227.01 119.898 1226.07 116.186C1225.64 114.568 1225.21 112.95 1224.77 111.283C1221.22 97.1074 1219.9 83.313 1224.79 69.2151C1225.39 67.453 1225.99 65.6908 1226.61 63.8753C1227.24 62.1015 1227.88 60.3278 1228.53 58.5003C1229.16 56.6655 1229.78 54.8307 1230.43 52.9403C1235.94 37.0062 1235.94 37.0062 1242.31 36.791Z" fill="#FEFEFE"/>
<path d="M879.318 50.4748C883.533 54.6902 881.852 60.7592 881.869 66.3687C881.861 69.3358 881.861 69.3358 881.853 72.3628C881.856 74.4477 881.859 76.5325 881.862 78.6806C881.871 85.7231 881.863 92.7656 881.856 99.8082C881.859 104.835 881.863 109.861 881.869 114.887C881.879 125.74 881.883 136.592 881.883 147.444C881.886 164.593 881.915 181.742 881.95 198.891C881.956 201.781 881.962 204.671 881.967 207.648C881.979 213.559 881.991 219.469 882.003 225.38C882.033 240.586 882.061 255.792 882.086 270.998C882.088 272.525 882.091 274.051 882.094 275.624C882.133 300.359 882.14 325.093 882.136 349.828C882.133 375.206 882.174 400.584 882.251 425.962C882.293 440.217 882.313 454.472 882.286 468.728C882.26 482.135 882.286 495.541 882.353 508.948C882.368 513.876 882.363 518.805 882.338 523.733C882.307 530.448 882.345 537.158 882.4 543.873C882.375 545.836 882.349 547.799 882.323 549.821C882.462 561.034 882.462 561.034 889.064 569.903C897.627 574.841 906.405 579.107 915.389 583.198C923.479 587.043 929.089 590.19 933.412 598.174C934.524 608.184 934.823 613.506 930.172 622.404C914.057 636.553 894.709 638.378 874.084 640.378C865.56 641.21 857.05 642.167 848.538 643.111C846.789 643.303 845.04 643.495 843.238 643.693C825.149 645.705 807.152 648.25 789.162 651C787.624 651.235 786.086 651.469 784.502 651.711C752.455 656.642 720.64 662.71 688.873 669.193C643.83 678.369 643.83 678.369 628.994 671.708C623.062 666.733 622.491 664.365 621.387 656.635C622.769 644.197 627.549 636.682 635.896 627.475C642.075 622.687 648.447 618.309 654.905 613.907C665.474 605.752 671.64 595.435 674.213 582.397C674.412 577.217 674.478 572.033 674.469 566.85C674.469 565.284 674.469 563.719 674.47 562.107C674.468 556.858 674.45 551.61 674.433 546.361C674.428 542.594 674.425 538.827 674.423 535.06C674.416 526.927 674.401 518.794 674.382 510.661C674.351 497.69 674.338 484.719 674.328 471.748C674.301 441.748 674.252 411.747 674.201 381.747C674.155 354.485 674.114 327.222 674.092 299.96C674.083 289.235 674.069 278.511 674.043 267.786C673.936 223.134 674.102 178.495 674.94 133.85C675.024 129.289 675.101 124.729 675.171 120.168C675.271 113.862 675.4 107.557 675.538 101.251C675.564 99.364 675.589 97.4765 675.616 95.5317C675.95 82.5459 675.95 82.5459 680.974 77.5217C686.891 75.9474 686.891 75.9474 694.498 74.5194C697.345 73.9812 700.192 73.4429 703.125 72.8884C706.26 72.3182 709.394 71.7496 712.529 71.1826C714.908 70.7442 714.908 70.7442 717.334 70.2969C742.658 65.6341 768.053 61.5368 793.529 57.8C795.071 57.5733 796.613 57.3465 798.201 57.1129C808.702 55.5793 819.213 54.129 829.732 52.7287C831.42 52.5005 833.109 52.2722 834.848 52.037C840.046 51.3423 845.246 50.6757 850.449 50.017C852.042 49.8026 853.635 49.5882 855.277 49.3673C863.808 48.3226 871.03 48.0286 879.318 50.4748Z" fill="#FEFEFE"/>
<path d="M1717.98 111.892C1720.12 112.484 1722.26 113.076 1724.47 113.686C1756.72 122.61 1788.71 132.265 1820.53 142.602C1822.37 143.197 1824.21 143.792 1826.1 144.406C1902.99 169.417 1902.99 169.417 1915.48 187.539C1918.64 197.032 1919.14 202.743 1917.87 212.754C1909.82 224.569 1897.27 228.854 1884.06 233.039C1882.58 233.039 1881.09 233.039 1879.56 233.039C1876.71 241.8 1876.97 250.584 1876.97 259.688C1876.96 261.477 1876.95 263.265 1876.94 265.107C1876.92 271.106 1876.91 277.104 1876.9 283.103C1876.89 287.401 1876.87 291.7 1876.86 295.998C1876.81 310.121 1876.79 324.243 1876.76 338.366C1876.76 343.23 1876.75 348.094 1876.74 352.958C1876.69 375.81 1876.66 398.662 1876.64 421.514C1876.62 447.882 1876.56 474.25 1876.47 500.618C1876.4 521.006 1876.37 541.394 1876.36 561.782C1876.36 573.955 1876.34 586.128 1876.28 598.302C1876.23 609.759 1876.22 621.215 1876.24 632.673C1876.24 636.869 1876.23 641.066 1876.2 645.263C1876.02 670.384 1876.45 691.242 1893.36 711.29C1900.69 720.636 1903.77 728.604 1905.19 740.45C1904.35 746.93 1904.35 746.93 1901.25 752.424C1891.75 758.077 1883.38 755.757 1872.79 753.692C1861.65 750.488 1850.72 746.802 1839.77 742.994C1830.7 739.844 1821.6 736.783 1812.51 733.706C1810.7 733.092 1808.9 732.478 1807.03 731.846C1775.84 721.254 1744.51 711.395 1712.55 703.402C1710.77 702.956 1708.99 702.509 1707.16 702.05C1698.39 699.853 1689.61 697.699 1680.81 695.612C1644.88 686.903 1644.88 686.903 1631.63 671.988C1628.35 662.967 1627.63 654.969 1629.37 645.504C1636.71 634.364 1647.66 630.841 1659.75 626.355C1667.4 621.796 1668.88 617.67 1672.2 609.442C1672.83 603.367 1673.12 597.826 1673.07 591.765C1673.08 590.026 1673.09 588.288 1673.11 586.497C1673.14 580.694 1673.12 574.892 1673.11 569.088C1673.12 564.919 1673.14 560.749 1673.15 556.579C1673.19 545.268 1673.19 533.957 1673.18 522.645C1673.17 513.196 1673.19 503.747 1673.2 494.298C1673.23 472.002 1673.23 449.706 1673.2 427.41C1673.18 404.424 1673.21 381.437 1673.27 358.451C1673.32 338.702 1673.33 318.954 1673.32 299.205C1673.31 287.416 1673.32 275.627 1673.36 263.838C1673.39 252.749 1673.38 241.661 1673.34 230.571C1673.33 226.508 1673.34 222.445 1673.36 218.382C1673.39 212.821 1673.37 207.264 1673.33 201.703C1673.35 200.107 1673.37 198.512 1673.39 196.867C1673.17 182.054 1668.01 170.455 1657.86 159.876C1656.08 158.452 1654.31 157.028 1652.47 155.561C1649.21 152.921 1646 150.216 1642.9 147.391C1642.9 145.903 1642.9 144.416 1642.9 142.883C1641.5 142.372 1640.11 141.861 1638.67 141.334C1632.17 137.317 1631.29 134.478 1629.37 127.106C1628.4 118.563 1628.15 111.349 1632.33 103.581C1650.83 86.4514 1697.08 106.027 1717.98 111.892Z" fill="#FEFEFE"/>
<path d="M235.465 210.498C235.661 218.621 235.782 226.743 235.888 234.868C235.945 237.176 236.001 239.485 236.06 241.863C236.081 244.078 236.103 246.294 236.126 248.576C236.161 250.618 236.196 252.66 236.233 254.764C235.314 261.13 233.674 262.924 228.704 266.845C225.856 268.795 222.99 270.718 220.111 272.621C201.26 286.629 189.625 312.8 186.161 335.73C185.352 347.459 185.706 360.061 193.231 369.636C207.211 382.148 223.89 382.799 241.664 384.048C244.078 384.233 246.492 384.418 248.979 384.608C263.733 385.7 278.492 386.579 293.266 387.35C294.93 387.439 296.595 387.529 298.309 387.621C306.489 388.059 314.668 388.475 322.85 388.842C366.557 390.992 402.449 398.364 433.809 431.38C463.309 465.926 465.526 514.389 463.11 557.599C458.356 613.634 434.189 664.119 397.747 706.357C396.753 707.527 395.76 708.697 394.737 709.902C372.793 735.572 347.241 757.905 318.86 776.228C316.672 777.655 314.484 779.081 312.23 780.551C298.666 789.156 284.849 796.972 270.542 804.261C269.049 805.032 267.557 805.803 266.02 806.598C257.38 810.898 249.622 813.744 239.973 814.544C234.376 808.947 237.083 794.307 237.015 786.793C236.917 783.213 236.917 783.213 236.817 779.56C236.798 777.261 236.779 774.961 236.76 772.592C236.727 770.482 236.694 768.371 236.66 766.197C238.031 758.757 240.992 756.187 246.735 751.435C251.339 748.723 251.339 748.723 256.173 746.364C278.728 734.196 295.904 715.911 305.055 691.847C308.708 679.216 310.425 666.53 305.689 653.989C299.141 642.221 290.784 634.691 278.29 629.724C243.22 619.971 205.482 619.37 169.336 617.416C166.092 617.234 162.847 617.052 159.603 616.87C153.3 616.517 146.997 616.204 140.691 615.914C110.417 614.27 87.2049 606.596 64.6526 585.817C35.9827 553.203 37.4538 509.434 39.9213 468.684C45.817 392.836 85.8923 318.802 140.801 266.845C142.289 266.845 143.776 266.845 145.309 266.845C145.794 265.573 146.279 264.3 146.779 262.989C157.57 244.661 213.966 203.331 235.465 210.498Z" fill="#FEFEFE"/>
<path d="M1983.96 209.062C2005.56 208.628 2023.17 217.444 2042.33 226.275C2044.65 227.327 2046.97 228.378 2049.36 229.462C2078.26 242.571 2106.96 256.11 2135.45 270.085C2137.65 271.148 2139.85 272.21 2142.12 273.305C2159.39 281.889 2174.79 291.095 2182.83 309.335C2185.41 317.677 2186.78 325.989 2184.33 334.462C2178.4 342.274 2175.24 345.413 2165.42 346.85C2161.11 346.785 2161.11 346.785 2156.72 346.718C2114.2 347.578 2080.14 370.199 2049.09 397.572C2046.9 399.216 2044.71 400.861 2042.45 402.555C2037.42 408.107 2037.42 408.107 2037.76 413.067C2038.87 418.621 2040.48 423.773 2042.33 429.126C2043.38 432.226 2043.38 432.226 2044.45 435.388C2047.08 442.825 2049.83 450.202 2052.61 457.582C2054.87 463.649 2057.12 469.719 2059.37 475.789C2059.98 477.427 2060.58 479.065 2061.21 480.753C2069.41 502.849 2077.42 525.012 2085.44 547.175C2086.24 549.398 2087.05 551.622 2087.87 553.912C2100.66 589.281 2113.31 624.699 2125.87 660.152C2126.64 662.336 2127.41 664.521 2128.21 666.772C2138.17 694.904 2148.03 723.07 2157.81 751.263C2160.37 758.616 2162.92 765.968 2165.49 773.317C2166 774.793 2166.52 776.269 2167.05 777.789C2175.48 801.417 2187.45 822.344 2202.08 842.718C2211.74 856.288 2214.34 865.799 2212.69 882.267C2211.37 886.669 2211.37 886.669 2204.61 891.177C2191.78 892.959 2182.68 888.017 2171.51 882.443C2169.61 881.521 2167.71 880.598 2165.75 879.648C2155.11 874.438 2144.62 868.984 2134.2 863.349C2088.03 838.416 2039.59 816.259 1990.6 797.458C1977.1 792.237 1964.58 785.993 1952.17 778.482C1952.17 776.994 1952.17 775.507 1952.17 773.974C1950.83 773.556 1949.48 773.137 1948.09 772.706C1940.91 767.987 1938.64 761.676 1936.4 753.689C1935.3 744.567 1935.37 739.8 1939.78 731.713C1947.23 725.006 1953.91 722.899 1963.44 719.88C1963.82 707.446 1962.81 697.08 1959.64 684.945C1959.23 683.391 1958.83 681.837 1958.41 680.236C1948.93 644.57 1936.58 609.69 1924.8 574.735C1922.09 566.677 1919.38 558.616 1916.68 550.556C1915.83 548.046 1914.98 545.536 1914.1 542.95C1894.33 483.992 1894.33 483.992 1900.76 463.358C1912.92 441.96 1927.96 422.382 1946.97 406.622C1957.91 397.071 1967.93 386.494 1978.12 376.162C1981.21 373.048 1984.32 369.958 1987.43 366.871C2003.99 350.168 2018.61 334.786 2024.51 311.597C2023.98 295.516 2015.11 283.484 2003.83 272.757C2002.45 271.503 2001.07 270.25 1999.65 268.958C1986.68 257.007 1973.75 244.999 1971.33 226.838C1972.7 217.938 1974.84 211.825 1983.96 209.062Z" fill="#FEFEFE"/>
<path d="M1200.39 134.867C1202.62 134.867 1204.85 134.867 1207.15 134.867C1213.41 156.693 1219.33 178.569 1224.62 200.653C1225.33 203.6 1225.33 203.6 1226.05 206.606C1226.5 208.486 1226.94 210.365 1227.4 212.301C1227.79 213.943 1228.18 215.585 1228.58 217.277C1228.94 219.09 1229.31 220.902 1229.69 222.77C1230.24 225.078 1230.78 227.386 1231.35 229.765C1232.16 241.865 1229.06 251.771 1225.65 263.313C1224.64 266.888 1224.64 266.888 1223.6 270.534C1221.43 278.146 1219.22 285.746 1217.01 293.345C1215.57 298.358 1214.14 303.372 1212.7 308.387C1209.91 318.15 1207.11 327.908 1204.29 337.663C1199.53 354.179 1194.92 370.736 1190.36 387.308C1188.08 395.574 1185.78 403.836 1183.48 412.098C1182.54 415.478 1181.6 418.859 1180.66 422.24C1175.03 442.525 1175.03 442.525 1173.62 447.601C1172.68 450.966 1171.75 454.332 1170.83 457.7C1168.43 466.405 1165.96 475.08 1163.36 483.73C1153.48 513.818 1153.48 513.818 1158.93 543.854C1164.28 552.777 1171.18 557.572 1179.82 563.109C1207.28 581.847 1207.28 581.847 1210.57 594.734C1211.28 603.608 1209.73 607.779 1204.19 614.667C1191.44 624.746 1182.48 626.478 1166.49 626.582C1163.79 626.604 1161.1 626.625 1158.32 626.648C1153.99 626.662 1153.99 626.662 1149.56 626.677C1147.33 626.686 1147.33 626.686 1145.06 626.696C1137.21 626.73 1129.35 626.75 1121.5 626.76C1113.43 626.773 1105.36 626.827 1097.29 626.891C1091.04 626.933 1084.8 626.945 1078.56 626.948C1074.15 626.958 1069.74 627 1065.33 627.043C1050.15 627.005 1038.28 626.245 1024.58 619.457C1017.07 611.474 1017.03 603.518 1016.92 593.044C1018.16 585.98 1020.05 582.256 1024.58 576.633C1030.2 573.329 1036.11 571.049 1042.19 568.744C1062.51 560.917 1077.97 549.777 1087.4 529.612C1089.15 525.18 1090.71 520.726 1092.2 516.2C1092.76 514.547 1093.33 512.893 1093.91 511.19C1099.57 494.276 1104.3 477.117 1108.9 459.891C1110.98 452.116 1113.14 444.363 1115.3 436.609C1115.75 434.997 1116.19 433.386 1116.66 431.725C1119.77 420.519 1122.92 409.324 1126.09 398.134C1127.8 392.083 1129.51 386.031 1131.22 379.979C1131.87 377.667 1131.87 377.667 1132.54 375.307C1138.92 352.686 1145.08 330.017 1151.08 307.291C1157.14 284.322 1163.53 261.48 1170.26 238.698C1174.5 224.338 1178.47 209.943 1182.27 195.459C1185.3 184.002 1188.55 172.608 1191.79 161.21C1192.38 159.12 1192.98 157.031 1193.59 154.878C1194.14 152.932 1194.7 150.986 1195.27 148.981C1195.77 147.236 1196.27 145.492 1196.78 143.695C1198.13 139.375 1198.13 139.375 1200.39 134.867Z" fill="#FEFEFE"/>
<path d="M79.7049 661.28C88.0327 670.126 91.8414 679.297 96.0458 690.44C107.775 720.068 122.625 754.654 152.464 769.829C171.816 775.807 193.528 772.591 212.685 767.214C215.916 776.907 215.355 786.221 215.362 796.374C215.39 798.418 215.417 800.462 215.446 802.567C215.45 804.542 215.454 806.516 215.459 808.55C215.468 810.348 215.477 812.147 215.487 813.999C214.869 819.703 213.528 823.252 210.432 828.069C189.861 838.43 166.008 841.672 143.486 845.128C113.886 849.02 113.886 849.02 90.9745 866.386C87.965 870.876 85.0535 875.434 82.2406 880.05C74.8376 891.328 70.0117 898.01 57.1659 902.448C48.7137 902.589 48.7137 902.589 41.3885 900.194C33.9275 891.009 33.647 882.238 33.7161 870.866C33.7006 869.079 33.6852 867.293 33.6692 865.452C33.6281 859.559 33.6367 853.667 33.6495 847.773C33.6392 843.655 33.6273 839.536 33.6137 835.417C33.5936 826.781 33.5991 818.146 33.6215 809.51C33.6473 798.498 33.602 787.488 33.536 776.477C33.4944 767.965 33.4953 759.453 33.5081 750.941C33.5085 746.885 33.495 742.829 33.4669 738.773C33.1784 690.275 33.1784 690.275 48.9955 670.296C67.5472 656.161 67.5472 656.161 79.7049 661.28Z" fill="#FEFEFE"/>
<path d="M428.538 140.629C434.631 144.848 436.988 147.506 438.88 154.666C439.944 161.834 440.111 168.693 440.135 175.941C440.142 177.405 440.15 178.869 440.158 180.377C440.179 185.194 440.183 190.011 440.186 194.829C440.193 198.2 440.201 201.572 440.209 204.943C440.222 212.006 440.226 219.069 440.225 226.132C440.225 235.138 440.255 244.142 440.294 253.148C440.319 260.113 440.324 267.078 440.323 274.043C440.325 277.361 440.335 280.678 440.353 283.995C440.578 330.994 440.578 330.994 427.411 344.608C426.039 346.072 424.668 347.536 423.255 349.045C416.904 354.917 412.334 355.165 403.886 355.314C401.913 355.372 399.94 355.43 397.908 355.49C391.26 354.585 389.96 353.04 385.714 347.989C383.577 343.655 383.577 343.655 381.743 338.735C381.044 336.906 380.345 335.078 379.624 333.193C378.891 331.242 378.158 329.291 377.402 327.281C371.531 312.207 365.458 297.321 358.385 282.766C357.371 280.593 357.371 280.593 356.336 278.375C351.12 267.906 345.34 262.406 336.128 255.578C334.782 254.564 333.437 253.55 332.051 252.506C317.382 243.957 300.757 245.02 284.288 246.563C279.761 248.006 275.249 249.5 270.764 251.071C267.789 251.071 264.814 251.071 261.749 251.071C257.792 243.157 258.983 234.15 258.931 225.432C258.885 223.486 258.838 221.539 258.79 219.533C258.779 217.651 258.767 215.768 258.755 213.828C258.734 212.11 258.713 210.392 258.691 208.622C259.736 202.272 261.806 199.341 266.257 194.723C281.395 187.452 299.22 186.147 315.702 184.299C317.972 184.025 320.243 183.752 322.582 183.471C335.894 181.896 349.201 180.608 362.568 179.605C372.217 178.361 377.132 174.297 383.319 167.113C384.853 165.067 386.387 163.022 387.967 160.914C390.193 158.121 392.449 155.352 394.729 152.603C395.798 151.293 396.868 149.982 397.969 148.632C406.72 139.947 416.724 138.664 428.538 140.629Z" fill="#FEFEFE"/>
<path d="M1028.82 36.9496C1032.17 43.6478 1031.41 50.4767 1031.4 57.8213C1031.41 59.5077 1031.42 61.1941 1031.43 62.9317C1031.45 68.5281 1031.45 74.1245 1031.46 79.721C1031.46 83.6129 1031.47 87.5048 1031.48 91.3968C1031.49 99.5708 1031.5 107.745 1031.49 115.919C1031.49 126.362 1031.52 136.805 1031.56 147.248C1031.59 155.296 1031.59 163.344 1031.59 171.392C1031.59 175.24 1031.6 179.087 1031.62 182.935C1031.64 188.34 1031.64 193.744 1031.62 199.148C1031.64 200.72 1031.65 202.292 1031.66 203.912C1031.59 215.779 1030.83 229.704 1023.41 239.44C1010.76 248.483 1001.2 250.186 985.999 248.817C975.132 245.112 971.51 237.537 966.294 227.925C961.125 216.699 958.381 204.855 955.43 192.892C947.125 149.83 947.125 149.83 921.745 116.549C917.747 114.175 913.704 111.874 909.612 109.664C904.858 106.821 904.858 106.821 902.604 102.313C902.001 93.7326 902.082 85.1328 902.041 76.5338C901.994 74.1383 901.948 71.7427 901.9 69.2746C901.888 66.9779 901.877 64.6812 901.865 62.3148C901.844 60.2071 901.822 58.0994 901.801 55.9278C902.604 50.473 902.604 50.473 904.858 46.4857C912.076 42.0433 919.883 42.0938 928.146 41.5718C930.012 41.4313 931.879 41.2908 933.802 41.146C937.767 40.8535 941.732 40.576 945.699 40.3123C951.661 39.9149 957.62 39.4734 963.579 39.023C985.37 37.431 1006.97 36.5209 1028.82 36.9496Z" fill="#FEFEFE"/>
<path d="M647.164 88.788C647.624 98.2716 647.903 107.752 648.151 117.244C648.283 119.925 648.415 122.607 648.551 125.37C648.934 144.954 648.934 144.954 643.909 151.87C639.892 155.207 635.738 158.034 631.387 160.913C610.955 184.561 605.343 212.458 598.371 241.974C597.704 244.749 597.038 247.524 596.351 250.383C595.039 255.882 593.764 261.39 592.533 266.908C588.4 284.392 583.274 304.133 568.14 315.376C559.402 320.306 551.277 322.726 541.231 320.94C533.519 316.033 528.513 311.578 525.454 302.909C523.374 292.637 522.914 282.874 522.908 272.404C522.904 270.761 522.9 269.117 522.896 267.424C522.886 262.031 522.893 256.638 522.9 251.245C522.899 247.486 522.897 243.726 522.894 239.966C522.89 232.107 522.895 224.249 522.906 216.39C522.919 206.305 522.911 196.219 522.898 186.134C522.89 178.38 522.892 170.627 522.898 162.873C522.9 159.153 522.898 155.433 522.892 151.712C522.887 146.527 522.895 141.342 522.908 136.157C522.91 133.205 522.912 130.253 522.913 127.211C523.2 120.343 523.2 120.343 525.454 115.835C530.131 114.054 530.131 114.054 536.336 112.34C538.63 111.699 540.924 111.059 543.287 110.399C545.77 109.729 548.252 109.059 550.81 108.369C553.338 107.677 555.865 106.986 558.469 106.273C574.889 101.822 591.343 97.5035 607.862 93.4367C609.747 92.9608 611.632 92.4848 613.574 91.9945C625.066 89.2497 635.349 88.3414 647.164 88.788Z" fill="#FEFEFE"/>
</svg>
